<?xml version="1.0" encoding="UTF-8" standalone="no"?>
<!-- Created with Inkscape (http://www.inkscape.org/) -->

<svg
   xmlns:dc="http://purl.org/dc/elements/1.1/"
   xmlns:cc="http://creativecommons.org/ns#"
   xmlns:rdf="http://www.w3.org/1999/02/22-rdf-syntax-ns#"
   xmlns:svg="http://www.w3.org/2000/svg"
   xmlns="http://www.w3.org/2000/svg"
   xmlns:sodipodi="http://sodipodi.sourceforge.net/DTD/sodipodi-0.dtd"
   xmlns:inkscape="http://www.inkscape.org/namespaces/inkscape"
   width="100"
   height="100"
   viewBox="0 0 26.458333 26.458334"
   version="1.1"
   id="svg8"
   sodipodi:docname="gold.svg"
   inkscape:version="0.92.5 (2060ec1f9f, 2020-04-08)">
  <defs
     id="defs2" />
  <sodipodi:namedview
     id="base"
     pagecolor="#ffffff"
     bordercolor="#666666"
     borderopacity="1.0"
     inkscape:pageopacity="0.0"
     inkscape:pageshadow="2"
     inkscape:zoom="5.6"
     inkscape:cx="62.046051"
     inkscape:cy="44.922471"
     inkscape:document-units="mm"
     inkscape:current-layer="layer1"
     showgrid="false"
     units="px"
     inkscape:pagecheckerboard="true"
     inkscape:window-width="1848"
     inkscape:window-height="1016"
     inkscape:window-x="72"
     inkscape:window-y="27"
     inkscape:window-maximized="1" />
  <metadata
     id="metadata5">
    <rdf:RDF>
      <cc:Work
         rdf:about="">
        <dc:format>image/svg+xml</dc:format>
        <dc:type
           rdf:resource="http://purl.org/dc/dcmitype/StillImage" />
        <dc:title></dc:title>
      </cc:Work>
    </rdf:RDF>
  </metadata>
  <g
     inkscape:label="Layer 1"
     inkscape:groupmode="layer"
     id="layer1"
     transform="translate(0,-270.54165)">
    <path
       style="fill:#ffdd83;fill-opacity:1;stroke:none;stroke-width:0.02431571;stroke-opacity:1"
       d="m 13.165533,271.86181 a 11.906241,11.906252 0 0 0 -7.7005547,2.84288 H 20.881945 a 11.906241,11.906252 0 0 0 -7.716412,-2.84288 z m 7.716412,2.84288 a 11.906241,11.906252 0 0 1 1.711521,1.80423 v -1.80423 z m 1.711521,1.80423 v 14.50643 a 11.906241,11.906252 0 0 0 2.478313,-7.24727 11.906241,11.906252 0 0 0 -2.478313,-7.25916 z m 0,14.50643 a 11.906241,11.906252 0 0 1 -1.71639,1.80643 h 1.71639 z m -1.71639,1.80643 h -9.408745 v -6.05434 c 0.427743,0.67271 0.901719,1.17039 1.421946,1.49301 0.520227,0.31576 1.118493,0.47365 1.794789,0.47365 1.196523,0 2.179206,-0.56291 2.947987,-1.68865 0.76878,-1.1326 1.153152,-2.58783 1.153152,-4.36567 0,-1.77786 -0.384372,-3.22964 -1.153152,-4.35538 -0.768781,-1.1326 -1.751464,-1.69892 -2.947987,-1.69892 -0.676296,0 -1.274562,0.1613 -1.794789,0.48392 -0.520227,0.31576 -0.994203,0.81 -1.421946,1.4827 v -1.68862 H 8.3643378 v 15.9183 H 5.4387253 a 11.906241,11.906252 0 0 0 7.7268077,2.85253 11.906241,11.906252 0 0 0 7.711543,-2.85253 z m -15.4383507,0 a 11.906241,11.906252 0 0 1 -1.8791732,-2.04352 v 2.04352 z m -1.8791732,-2.04352 v -14.02324 a 11.906241,11.906252 0 0 0 -2.3002744,7.01306 11.906241,11.906252 0 0 0 2.3002744,7.01018 z m 0,-14.02324 a 11.906241,11.906252 0 0 1 1.9054262,-2.05033 H 3.5595521 Z m 9.9723619,2.54753 c 0.664731,0 1.170513,0.28831 1.517328,0.86491 0.352602,0.5766 0.528885,1.41403 0.528885,2.51232 0,1.09827 -0.176283,1.93575 -0.528885,2.51235 -0.346815,0.5766 -0.852597,0.8649 -1.517328,0.8649 -0.66474,0 -1.176273,-0.2883 -1.534653,-0.8649 -0.352602,-0.58347 -0.52893,-1.42093 -0.52893,-2.51235 0,-1.09143 0.176328,-1.92541 0.52893,-2.502 0.35838,-0.58348 0.869913,-0.87523 1.534653,-0.87523 z"
       id="rect4518"
       inkscape:connector-curvature="0" />
  </g>
</svg>
